<svg xmlns="http://www.w3.org/2000/svg" width="115.032" height="29.5" viewBox="0 0 115.032 29.5">
  <defs>
    <style>
      .cls-1 {
        fill-rule: evenodd;
      }
    </style>
  </defs>
  <path id="archieX" class="cls-1" d="M28.379,24.691a1.333,1.333,0,0,0,.75.375,21.473,21.473,0,0,0,3-.24l0.03-.45-1.83-.09q-0.48,0-.48-0.93v-9.18a4.455,4.455,0,0,0-.45-2.07,3.562,3.562,0,0,0-1.065-1.3,4.787,4.787,0,0,0-1.455-.675,6.623,6.623,0,0,0-1.365-.27q-0.525-.03-1.095-0.015a14.357,14.357,0,0,0-1.8.225,17.186,17.186,0,0,0-3.57,1.23l-0.3.12v3.63l0.57-.15,0.12-2.34a11.9,11.9,0,0,1,2.94-1.74,5.612,5.612,0,0,1,2.025-.45,4.144,4.144,0,0,1,1.605.3,2.392,2.392,0,0,1,.93.675,4.232,4.232,0,0,1,.66,1.335,6.876,6.876,0,0,1,.3,2.16v2.64q-4.68.54-6.48,0.93-3.03.781-3.03,3.09a2.75,2.75,0,0,0,.03.39q0.24,3.15,4.23,3.15a12.376,12.376,0,0,0,5.25-1.26h0.09A1.161,1.161,0,0,0,28.379,24.691Zm-7.23-.825a2.987,2.987,0,0,1-.93-2.25v-0.3a3.261,3.261,0,0,1,.435-1.575,2.628,2.628,0,0,1,1.59-1.17,27.8,27.8,0,0,1,5.655-.525V23a8.943,8.943,0,0,1-4.71,1.56A3.107,3.107,0,0,1,21.149,23.866Zm15.17-13.56a1.374,1.374,0,0,0-1.14-.39,16.287,16.287,0,0,0-2.46.27l-0.03.42,1.8,0.06a0.226,0.226,0,0,1,.18.21V23.9q0,0.39-.24.42l-1.56.21a2.259,2.259,0,0,0-.03.42l6.3-.03c0.02-.28.03-0.43,0.03-0.45l-2.55-.15v-9.96q2.25-2.88,4.44-2.91a1.991,1.991,0,0,1,1.47.57l0.78-1.8-1.68-.21h-0.36q-2.28.061-4.65,3.54v-2.4A1.353,1.353,0,0,0,36.319,10.306Zm17.745,0.48a5.419,5.419,0,0,1,1.6,1.14l0.15,3.15,0.57-.21v-3.93a4.16,4.16,0,0,0-1.875-.885,10.077,10.077,0,0,0-2.3-.285,7.584,7.584,0,0,0-5.67,2.31q-2.01,2.01-2.01,5.94a9.249,9.249,0,0,0,.63,3.615,4.654,4.654,0,0,0,1.7,2.175,7.188,7.188,0,0,0,2.115.96,9.4,9.4,0,0,0,2.34.27,15.7,15.7,0,0,0,2.88-.3,6.656,6.656,0,0,0,2.28-.75l-0.21-.33a10.179,10.179,0,0,1-1.5.465,12.825,12.825,0,0,1-3.33.375q-4.95,0-4.95-6.51a8.936,8.936,0,0,1,1.575-5.655,5.006,5.006,0,0,1,4.125-2A4.334,4.334,0,0,1,54.064,10.786Zm8.555-7.98a1.374,1.374,0,0,0-1.14-.39,16.288,16.288,0,0,0-2.46.27l-0.03.42,1.8,0.06q0.18,0,.18.33V23.9q0,0.39-.24.42l-1.56.21a2.259,2.259,0,0,0-.03.42l6-.03c0.02-.28.03-0.43,0.03-0.45l-2.25-.15V12.136a8.5,8.5,0,0,1,4.29-1.59,3.057,3.057,0,0,1,1.38.24,2.936,2.936,0,0,1,.99.6,3.2,3.2,0,0,1,.735,1.245,5.86,5.86,0,0,1,.315,2.025v9.39a0.271,0.271,0,0,1-.24.27l-1.56.21a2.259,2.259,0,0,0-.03.42l6-.03c0.02-.28.03-0.43,0.03-0.45l-2.25-.15V13.876a4.466,4.466,0,0,0-.39-1.95,3.319,3.319,0,0,0-.915-1.215,3.725,3.725,0,0,0-1.245-.615q-3.18-1.019-7.11,1.68V3.646A1.353,1.353,0,0,0,62.619,2.806Zm17,7.5a1.374,1.374,0,0,0-1.14-.39,16.287,16.287,0,0,0-2.46.27l-0.03.42,1.8,0.06a0.226,0.226,0,0,1,.18.21v13.17a0.271,0.271,0,0,1-.24.27l-1.56.21a2.259,2.259,0,0,0-.03.42l6-.03c0.02-.28.03-0.43,0.03-0.45l-2.25-.15V11.146A1.353,1.353,0,0,0,79.619,10.306Zm0.27-4.755a1.252,1.252,0,0,0,.39-0.99,1.379,1.379,0,0,0-.375-1.02,1.32,1.32,0,0,0-.975-0.375,1.22,1.22,0,0,0-.945.375,1.405,1.405,0,0,0-.345.99,1.442,1.442,0,0,0,.33.99,1.172,1.172,0,0,0,.93.375A1.439,1.439,0,0,0,79.889,5.551Zm6.63,11.475h10.71a10,10,0,0,0,.09-1.29,6.1,6.1,0,0,0-1.485-4.38A5.667,5.667,0,0,0,91.529,9.8a6.7,6.7,0,0,0-4.95,2.19,8.349,8.349,0,0,0-2.04,6.06,9.135,9.135,0,0,0,.63,3.6,4.621,4.621,0,0,0,1.71,2.16,7.432,7.432,0,0,0,2.115.96,9.287,9.287,0,0,0,2.34.27,15.521,15.521,0,0,0,2.88-.3,6.63,6.63,0,0,0,2.265-.75l-0.21-.3a7.643,7.643,0,0,1-1.92.525,15.114,15.114,0,0,1-2.82.285q-5.04,0-5.04-6.48,0-.659.03-0.99h0Zm9-.57h-8.94a7.836,7.836,0,0,1,1.53-4.08,4.612,4.612,0,0,1,3.75-1.95,3.12,3.12,0,0,1,2.7,1.425,6.3,6.3,0,0,1,.99,3.675q0,0.6-.03.93h0Zm9.03,8.46q0.03-.42.03-0.45l-2.55-.18,4.8-9.03,4.89,8.67a0.166,0.166,0,0,1-.03.24,0.534,0.534,0,0,1-.3.15l-1.44.21a2.267,2.267,0,0,0-.03.42l6-.03q0.03-.42.03-0.45l-1.83-.12-6.06-10.32,5.34-9.51,1.59-.15q-0.03-.42-0.03-0.45l-5.46.03,0.03,0.45,2.55,0.24a0.32,0.32,0,0,1,.2.15,0.248,0.248,0,0,1,.045.21l-4.53,8.52-5.07-8.97,1.95-.18q-0.03-.42-0.03-0.45L99,3.946l0.03,0.45,1.35,0.15a0.325,0.325,0,0,1,.27.18l0.15,0.21,5.73,9.78-5.07,9.15a0.613,0.613,0,0,1-.48.39l-2.16.27-0.03.42Z" transform="translate(-0.906 -0.75)"/>
  <path id="Rectangle_2_copy" data-name="Rectangle 2 copy" class="cls-1" d="M9.758,0.736l1.8,0.877L2.708,30.263l-1.8-.877Z" transform="translate(-0.906 -0.75)"/>
</svg>
