<?xml version="1.0" encoding="utf-8"?>
<!-- Generator: Adobe Illustrator 25.4.1, SVG Export Plug-In . SVG Version: 6.00 Build 0)  -->
<svg version="1.1" id="Layer_1" xmlns="http://www.w3.org/2000/svg" xmlns:xlink="http://www.w3.org/1999/xlink" x="0px" y="0px"
	 viewBox="0 0 467.5 418.8" style="enable-background:new 0 0 467.5 418.8;" xml:space="preserve">
<style type="text/css">
	.st0{fill:none;stroke:#fff;stroke-width:10;stroke-linecap:round;stroke-linejoin:round;stroke-miterlimit:10;}
	.st1{fill:none;stroke:#fff;stroke-width:8;stroke-linecap:round;stroke-linejoin:round;stroke-miterlimit:10;}
</style>
<g id="_x33_8">
	<path class="st0" d="M151.2,413.8V5h165v408.8 M151.2,76.2H35v337.5 M432.5,413.8V117.5H316.2 M462.5,413.8H5"/>
	<path class="st1" d="M260,413.8v-56.2c0-4.1-3.4-7.5-7.5-7.5H215c-4.1,0-7.5,3.4-7.5,7.5v56.2 M252.5,305H215 M252.5,271.2H215
		 M252.5,237.5H215 M252.5,203.8H215 M252.5,170H215 M252.5,136.2H215 M252.5,102.5H215 M252.5,68.8H215 M113.8,331.2H76.2
		 M113.8,297.5H76.2 M113.8,263.8H76.2 M113.8,230H76.2 M113.8,196.2H76.2 M113.8,162.5H76.2 M113.8,128.8H76.2 M391.2,331.2h-37.5
		 M391.2,297.5h-37.5 M391.2,263.8h-37.5 M391.2,230h-37.5 M391.2,196.2h-37.5 M391.2,162.5h-37.5"/>
</g>
</svg>
