<?xml version="1.0" encoding="utf-8"?>
<!-- Generator: Adobe Illustrator 25.4.1, SVG Export Plug-In . SVG Version: 6.00 Build 0)  -->
<svg version="1.1" id="Layer_1" xmlns="http://www.w3.org/2000/svg" xmlns:xlink="http://www.w3.org/1999/xlink" x="0px" y="0px"
	 viewBox="0 0 384 384" style="enable-background:new 0 0 384 384;" xml:space="preserve">
<g>
	<path fill="#fff" d="M91.5,0c3.6,1.8,3.9,4.9,3.9,8.5c-0.1,91.6,0,183.2,0,274.9c0,1.6,0,3.2,0,5.2c2,0,3.6,0,5.2,0c60.4,0,120.7,0,181.1,0
		c6.1,0,8.7,1.8,8.6,5.7c-0.1,3.8-2.7,5.5-8.5,5.5c-63,0-126,0-189,0c-7,0-8.7-1.6-8.7-8.6c0-91.6,0-183.2,0-274.9c0-1.6,0-3.2,0-5
		c-24.4,0-48.4,0-72.7,0c0,10.1,0,20,0,30.6c4.6,0,9.3,0,14,0c1.5,0,3-0.1,4.5,0.1c3.2,0.3,5.3,2.7,5.3,5.7c-0.1,3-2.3,5.3-5.5,5.4
		c-4.6,0.1-9.2,0-13.9,0.1c-1.4,0-2.7,0-4.3,0c0,12.3,0,24.3,0,36.8c7.4,0,14.7,0,22.1,0c2.5,0,5-0.1,7.5,0c3.8,0.1,6.2,2.3,6.2,5.6
		c0,3.3-2.3,5.5-6.1,5.6c-8.4,0.1-16.7,0-25.1,0c-1.4,0-2.7,0-4.4,0c0,12.2,0,24.2,0,36.8c4.8,0,9.6,0,14.4,0c1.5,0,3-0.1,4.5,0.2
		c3.1,0.6,4.9,2.6,4.7,5.8c-0.2,3.2-2.1,5.1-5.3,5.2c-5.1,0.2-10.2,0.1-15.4,0.1c-1,0-1.9,0.1-3.1,0.2c0,12.1,0,24.1,0,36.6
		c1.6,0,3.2,0,4.8,0c8,0,16,0,24,0c4.6,0,7,2,7,5.5c0.1,3.6-2.4,5.8-7.1,5.8c-8.1,0.1-16.2,0-24.4,0c-1.3,0-2.7,0-4.3,0
		c0,12.3,0,24.3,0,36.8c5,0,10.1,0,15.2,0c6,0,8.5,1.6,8.6,5.4c0.1,4-2.7,5.9-8.6,5.9c-5,0-10,0-15.2,0c0,12.3,0,24.2,0,36.8
		c1.1,0,2.3,0,3.5,0c8,0,16,0,24,0c5.7,0,8.4,1.8,8.3,5.7c-0.1,3.8-2.7,5.5-8.5,5.6c-9,0-18,0-27.2,0c0,12.3,0,24.3,0,36.8
		c5.6,0,11.2,0,16.8,0c4.4,0,6.9,2,6.9,5.6c0,3.5-2.5,5.6-6.9,5.7c-5.6,0-11.2,0-16.9,0c0,10.4,0,20.3,0,30.5c10,0,20.1,0,30.6,0
		c0-5.8-0.1-11.6,0-17.5c0.1-4.2,3-7,6.6-6.2c3.1,0.7,4.6,2.8,4.6,6c0,5.8,0,11.7,0,17.7c12.3,0,24.2,0,36.8,0c0-2.4,0-4.8,0-7.2
		c0-5.5-0.1-11,0-16.5c0.1-3.8,2.4-6.1,5.7-6.1c3.3,0,5.4,2.4,5.5,6.3c0.1,7.7,0,15.5,0,23.5c12.3,0,24.3,0,36.8,0c0-5,0-9.9,0-14.9
		c0-1.2-0.1-2.5,0.1-3.7c0.5-3.3,2.9-5.3,5.9-5.1c3,0.2,5.1,2.3,5.2,5.8c0.1,4.6,0,9.2,0.1,13.9c0,1.3,0,2.7,0,4.2
		c12.4,0,24.3,0,36.9,0c0-5.6,0-11.2,0-16.8c0-2.5-0.1-5,0.1-7.5c0.2-3.4,2.4-5.5,5.4-5.6c3.2-0.1,5.6,2.1,5.7,5.6
		c0.2,6.6,0.1,13.2,0.1,19.9c0,1.4,0,2.7,0,4.3c12.3,0,24.2,0,36.9,0c0-4.1,0-8.3,0-12.5c0-1.9-0.1-3.8,0-5.6
		c0.2-3.4,2.3-5.5,5.3-5.7c3.2-0.1,5.6,2,5.8,5.5c0.2,4,0.1,8,0.1,12c0,2,0,4,0,6.2c12.3,0,24.3,0,36.8,0c0-6.5,0-13,0-19.5
		c0-1.4,0-2.8,0-4.1c0.1-3.9,2.2-6.2,5.6-6.2c3.3,0,5.6,2.3,5.7,6.1c0.1,6.5,0,13,0,19.5c0,1.3,0,2.7,0,4.2c12.4,0,24.3,0,36.8,0
		c0-5.8,0-11.7,0-17.5c0-4,2.3-6.5,5.8-6.3c3.2,0.1,5.3,2.5,5.5,6.4c0.1,2.9,0,5.7,0,8.6c0,2.9,0,5.7,0,8.8c10.3,0,20.3,0,30.6,0
		c0-24.1,0-48,0-72.6c-1.2,0-2.6,0-3.9,0c-18,0-36,0-54,0c-1.5,0-3-0.1-4.4-0.5c-2.7-0.9-4.3-3.2-3.4-5.8c0.7-1.9,2.8-3.4,4.5-4.7
		c0.6-0.5,1.9-0.2,2.9-0.2c20.6,0,41.2,0,61.9-0.1c3.4,0,6.1,0.8,7.8,3.9c0,30.5,0,61,0,91.5c-128,0-256,0-384,0C0,256,0,128,0,0
		C30.5,0,61,0,91.5,0z"/>
	<path fill="#fff" d="M227.8,245.8c-27,0-54,0-81,0c-7,0-8.6-1.6-8.6-8.6c0-42.1,0-84.2-0.1-126.3c0-4,1.2-6.8,4.4-9.2
		c26.8-20.9,53.5-41.9,80.2-62.9c4.6-3.6,6.1-3.6,10.5-0.1c26.8,21.1,53.6,42.2,80.5,63.1c3.1,2.4,4.3,5.1,4.3,8.9
		c-0.1,42.2-0.1,84.5-0.1,126.7c0,6.7-1.7,8.5-8.4,8.5C282.3,245.8,255.1,245.8,227.8,245.8z M306.4,234.2c0.1-0.9,0.2-1.5,0.2-2.1
		c0-39.7,0-79.5-0.1-119.2c0-1.3-1-3.1-2.1-3.9c-24.7-19.5-49.5-38.9-74.2-58.5c-1.7-1.4-2.8-1.3-4.5,0
		C201.2,70,176.5,89.3,152,108.8c-1.3,1-2.4,3.3-2.4,4.9c-0.1,39-0.1,78-0.2,117c0,3.3,1.2,3.9,4.1,3.9c11.5-0.1,23-0.2,34.5,0
		c3.4,0.1,4.4-0.8,4.4-4.3c-0.1-27.9-0.1-55.7-0.1-83.6c0-6.8,1.6-8.4,8.4-8.4c18.1,0,36.2,0,54.4,0c7.2,0,8.7,1.6,8.7,8.9
		c0,27.5,0,55,0,82.5c0,1.5,0,3,0,4.6C278.2,234.2,292.3,234.2,306.4,234.2z M252.3,234.2c0-28.4,0-56.3,0-84.4
		c-0.8-0.1-1.4-0.3-2-0.3c-14.6,0-29.2,0-43.8-0.1c-2.9,0-2.8,1.6-2.8,3.6c0,26,0.1,52,0,77.9c0,2.8,0.8,3.6,3.6,3.6
		c14-0.1,28-0.1,42-0.1C250.2,234.5,251.1,234.3,252.3,234.2z"/>
	<path fill="#fff" d="M354.5,47.3c-2.3,0-4.3,0.1-6.2,0c-3.3-0.2-5.4-2.5-5.5-5.5c0-3,2.1-5.6,5.3-5.6c8.1-0.2,16.2-0.2,24.4,0
		c3.4,0.1,5.7,2.7,5.5,5.9c-0.1,3-2.4,5.1-5.7,5.3c-2,0.1-3.9,0-6.1,0c0,62.5,0,124.7,0,187.3c2.3,0,4.4-0.1,6.5,0
		c3.2,0.2,5.1,2.1,5.3,5.3c0.2,3.2-1.7,5.6-4.8,5.7c-8.5,0.3-17,0.3-25.5,0c-3.3-0.1-5.3-2.9-4.9-6c0.4-3.2,2.3-4.9,5.5-5.1
		c2-0.1,4,0,6.2,0C354.5,172,354.5,109.9,354.5,47.3z"/>
</g>
</svg>
