<?xml version="1.0" encoding="utf-8"?>
<!-- Generator: Adobe Illustrator 25.4.1, SVG Export Plug-In . SVG Version: 6.00 Build 0)  -->
<svg version="1.1" id="Layer_1" xmlns="http://www.w3.org/2000/svg" xmlns:xlink="http://www.w3.org/1999/xlink" x="0px" y="0px"
	 viewBox="0 0 362.5 351.2" style="enable-background:new 0 0 362.5 351.2;" xml:space="preserve">
<style type="text/css">
	.st0{fill:none;stroke:#fff;stroke-width:10;stroke-linecap:round;stroke-linejoin:round;stroke-miterlimit:10;}
	.st1{fill:none;stroke:#fff;stroke-width:8;stroke-linecap:round;stroke-linejoin:round;stroke-miterlimit:10;}
	.st2{fill:#fff;}
</style>
<g id="_x35_">
	<path class="st0" d="M23.8,147.5L5,121.2L181.2,5l176.2,116.2l-18.8,26.2L181.2,38.8L23.8,147.5z M42.5,134.1v174.6 M312.5,129.9
		v178.8 M346.2,308.8H8.8v37.5h337.5V308.8z"/>
	<path class="st1" d="M173.8,308.8V166.2c0-4.1-3.4-7.5-7.5-7.5h-75c-4.1,0-7.5,3.4-7.5,7.5v142.5 M278.8,256.2v-90
		c0-4.1-3.4-7.5-7.5-7.5h-52.5c-4.1,0-7.5,3.4-7.5,7.5v90 M192.5,256.2h105 M211.2,207.5h67.5"/>
	<path class="st2" d="M125,235.6c0,3.1-2.5,5.6-5.6,5.6h-11.2c-3.1,0-5.6-2.5-5.6-5.6l0,0c0-3.1,2.5-5.6,5.6-5.6h11.2
		C122.5,230,125,232.5,125,235.6L125,235.6z"/>
</g>
</svg>
