<svg version="1.1" id="Layer_1" xmlns="http://www.w3.org/2000/svg" xmlns:xlink="http://www.w3.org/1999/xlink" x="0px" y="0px"
	 width="100%" viewBox="0 0 704 1024" enable-background="new 0 0 704 1024" xml:space="preserve">
<path fill="#ff481c" opacity="1.000000" stroke="none"
	d="
M634.033569,428.763367
	C632.777527,443.147552 631.518860,457.065155 630.322815,470.988129
	C628.700073,489.878540 627.066589,508.768341 625.546387,527.667175
	C624.038269,546.416077 622.723083,565.180542 621.217407,583.929626
	C619.379272,606.818420 617.413696,629.696899 615.534973,652.582458
	C613.779297,673.968872 612.064209,695.358765 610.332581,716.747192
	C608.062378,744.789001 605.788757,772.830627 603.525635,800.872986
	C602.106873,818.453613 600.705750,836.035645 599.294922,853.616943
	C597.404114,877.180054 595.503174,900.742432 593.622437,924.306396
	C592.139282,942.888306 590.684509,961.472595 589.208496,980.055054
	C588.536621,988.514282 587.860413,996.973206 587.155945,1005.429749
	C586.488647,1013.441162 584.552063,1014.829285 576.615356,1013.135681
	C527.321289,1002.616577 478.037476,992.049194 428.727692,981.604370
	C366.717896,968.469360 304.684631,955.445374 242.664948,942.357239
	C182.584442,929.678284 122.508980,916.975525 62.429337,904.292480
	C54.554173,902.630005 53.928982,902.305420 53.526230,894.318359
	C52.805088,880.017395 52.367527,865.699341 52.004513,851.383545
	C51.493530,831.232239 51.279102,811.073120 50.725319,790.923157
	C49.169304,734.306641 47.544956,677.692993 46.489281,621.062866
	C46.011181,595.416016 45.181854,569.772888 44.530609,544.127930
	C43.545429,505.333282 42.433250,466.542206 41.518776,427.744690
	C40.957623,403.937225 40.075714,380.136627 39.595821,356.322571
	C38.793777,316.522156 37.647339,276.728607 36.616001,236.932938
	C36.020493,213.954498 35.374386,190.977371 34.735168,168.000076
	C34.443344,157.510193 34.076523,147.022278 33.813190,136.531738
	C33.636684,129.500366 34.713181,128.112000 41.584797,126.673203
	C83.118393,117.976784 124.664413,109.339714 166.196808,100.637619
	C230.363174,87.193138 294.519165,73.699158 358.685211,60.253170
	C385.709717,54.590179 412.761871,49.057869 439.766449,43.302036
	C443.706940,42.462147 446.539093,43.459007 449.078888,46.322845
	C471.741089,71.876678 494.408783,97.425659 517.101685,122.952240
	C537.248779,145.615082 557.434082,168.243881 577.595032,190.894424
	C599.417358,215.411469 621.228882,239.938171 643.051758,264.454773
	C645.236511,266.909180 646.612000,269.681091 646.347229,273.034943
	C645.142822,288.290497 643.928650,303.545380 642.664368,318.796051
	C641.633728,331.228668 640.437256,343.648071 639.473755,356.085693
	C637.609436,380.152252 635.857422,404.227509 634.033569,428.763367
M79.212585,831.597473
	C76.563438,847.234070 73.914299,862.870667 70.994370,880.105591
	C205.834686,786.066040 339.358856,692.944458 473.657288,599.282898
	C364.325226,542.847534 255.925125,486.893219 146.573746,430.447876
	C124.016174,564.686462 101.662971,697.708801 79.212585,831.597473
M493.751617,322.345062
	C383.416229,354.997894 273.080872,387.650726 162.745514,420.303558
	C162.764694,420.826538 162.783890,421.349548 162.803070,421.872528
	C269.893768,477.181610 376.984497,532.490662 484.720337,588.132935
	C531.692017,486.365875 578.388000,385.196045 625.494141,283.137634
	C580.992920,296.385254 537.761169,309.255005 493.751617,322.345062
M337.154236,190.625214
	C279.250061,261.485199 221.345871,332.345215 163.441696,403.205200
	C163.696884,403.568329 163.952087,403.931458 164.207291,404.294586
	C317.799011,358.793060 471.390717,313.291504 625.877136,267.524933
	C564.525146,198.470184 503.967621,130.309708 443.597137,62.359730
	C440.968231,63.318661 440.054016,64.979790 438.911926,66.377052
	C432.271118,74.501564 425.672821,82.660858 419.022217,90.777306
	C391.893433,123.885567 364.750916,156.982590 337.154236,190.625214
M222.211456,103.889778
	C166.699142,115.549438 111.195839,127.252541 55.657413,138.786499
	C51.201767,139.711823 51.431370,141.592468 52.643448,145.023773
	C62.622223,173.273102 72.447411,201.576614 82.364594,229.847748
	C100.216774,280.739319 118.074997,331.628815 136.002090,382.493958
	C138.344421,389.139954 140.170731,396.021240 143.877487,403.338043
	C237.103775,289.467926 329.668793,176.405533 423.081604,62.307587
	C420.657257,62.473118 419.996826,62.441498 419.370148,62.571991
	C385.169769,69.693787 350.968811,76.813110 316.775299,83.967896
	C285.519470,90.508003 254.271957,97.087975 222.211456,103.889778
M331.677032,857.931763
	C339.615295,857.099915 347.561676,856.338013 355.490356,855.423340
	C380.097229,852.584412 404.686127,849.583008 429.311737,846.919556
	C433.235016,846.495239 434.861481,844.901733 435.508362,841.296692
	C437.447632,830.489319 439.547974,819.710938 441.550781,808.914795
	C451.446655,755.571228 461.331665,702.225586 471.220032,648.880615
	C473.239471,637.986084 475.256927,627.091125 477.529327,614.825439
	C347.722290,705.345825 219.074265,795.057983 90.426239,884.770081
	C114.350975,882.900635 137.779404,880.115479 161.218216,877.420593
	C181.056046,875.139526 200.908920,872.989807 220.749435,870.731812
	C238.090286,868.758362 255.421738,866.702454 272.760010,864.705994
	C292.096924,862.479370 311.436859,860.278809 331.677032,857.931763
M624.384460,363.011444
	C625.694702,346.560211 627.004944,330.108978 628.409546,312.473541
	C627.592041,313.987518 627.346741,314.387329 627.151855,314.810303
	C605.061462,362.768127 582.980103,410.730164 560.886230,458.686401
	C539.909058,504.218811 518.932312,549.751526 497.900848,595.258850
	C496.654083,597.956543 496.357880,600.422058 497.034027,603.401062
	C504.582458,636.658386 511.969971,669.952209 519.410217,703.234070
	C533.427795,765.937927 547.452087,828.640198 561.472656,891.343384
	C566.081360,911.954590 570.687195,932.566467 575.613831,954.607300
	C576.180969,952.429138 576.494629,951.678833 576.559753,950.907532
	C577.958923,934.332275 579.359070,917.756958 580.699707,901.176880
	C582.469238,879.292908 584.185120,857.404602 585.929138,835.518555
	C587.885742,810.964355 589.835449,786.409546 591.811951,761.856934
	C593.173218,744.945679 594.555542,728.036072 595.963440,711.128662
	C597.536621,692.236694 599.179932,673.350525 600.735168,654.457092
	C602.018738,638.863342 603.197327,623.261047 604.460754,607.665588
	C606.180054,586.443298 607.954285,565.225403 609.670349,544.002869
	C611.117920,526.099976 612.502258,508.191986 613.939514,490.288239
	C615.857300,466.399933 617.795288,442.513245 619.732056,418.626465
	C621.210632,400.389923 622.700928,382.154327 624.384460,363.011444
M73.335609,248.081863
	C65.815437,226.764420 58.295269,205.446960 50.775097,184.129517
	C50.146057,195.814346 50.606201,207.372910 50.958454,218.946442
	C52.123856,257.236755 53.132069,295.533875 53.865250,333.834808
	C54.687664,376.797333 55.735970,419.751556 57.121723,462.699402
	C57.921825,487.496460 58.459057,512.302063 59.113026,537.103821
	C59.788979,562.739624 60.466240,588.375427 61.136940,614.011292
	C61.781521,638.648682 62.471661,663.284973 63.045803,687.923950
	C63.837341,721.892212 64.564011,755.862061 65.261757,789.832458
	C65.446251,798.814636 66.610596,807.755981 66.233078,816.773621
	C68.153275,807.344543 69.963570,797.924622 71.552368,788.467407
	C80.563202,734.831543 89.530930,681.188416 98.494331,627.544556
	C109.519135,561.563660 120.477409,495.571594 131.613556,429.609558
	C132.726257,423.018829 132.312332,417.000397 130.063507,410.617310
	C111.082809,356.742584 92.372238,302.772705 73.335609,248.081863
M312.611145,875.258667
	C287.637085,878.017761 262.654602,880.703003 237.691010,883.553894
	C203.640060,887.442749 169.604050,891.462280 135.560410,895.415283
	C126.708809,896.443115 117.852745,897.432434 108.998734,898.439392
	C109.034248,898.662415 109.069763,898.885376 109.105270,899.108398
	C258.236023,930.661316 407.366791,962.214172 556.738770,993.818115
	C556.599365,991.221741 555.027588,990.319458 553.960754,989.136902
	C541.130859,974.915222 528.266541,960.724426 515.411072,946.525696
	C490.927948,919.484497 466.414948,892.470337 442.002258,865.365784
	C439.198669,862.253052 436.295044,860.849487 431.982910,861.363708
	C392.504364,866.070801 353.006683,870.617371 312.611145,875.258667
M477.330963,697.751648
	C468.189667,746.981262 459.119171,796.224365 449.787079,845.417786
	C448.943542,849.864319 450.361603,852.592590 453.096863,855.602844
	C487.587860,893.559875 522.002014,931.586792 556.445557,969.586975
	C559.248230,972.679077 562.122681,975.706055 564.963806,978.763306
	C565.204163,978.602173 565.444519,978.441040 565.684875,978.279846
	C540.238953,864.673584 514.792969,751.067261 489.347015,637.460999
	C489.122192,637.505737 488.897369,637.550476 488.672546,637.595276
	C484.932922,657.363525 481.193329,677.131775 477.330963,697.751648
z"/>
</svg>
